<?xml version="1.0" encoding="UTF-8" standalone="no"?>
<svg
   xmlns:dc="http://purl.org/dc/elements/1.1/"
   xmlns:cc="http://creativecommons.org/ns#"
   xmlns:rdf="http://www.w3.org/1999/02/22-rdf-syntax-ns#"
   xmlns:svg="http://www.w3.org/2000/svg"
   xmlns="http://www.w3.org/2000/svg"
   xmlns:sodipodi="http://sodipodi.sourceforge.net/DTD/sodipodi-0.dtd"
   xmlns:inkscape="http://www.inkscape.org/namespaces/inkscape"
   id="svg8"
   version="1.1"
   viewBox="0 0 566.53119 149.35691"
   height="149.35692mm"
   width="566.53119mm"
   sodipodi:docname="wissensbasis_barrierefreiheit (2).svg"
   inkscape:version="1.0.1 (3bc2e813f5, 2020-09-07)">
  <sodipodi:namedview
     pagecolor="#ffffff"
     bordercolor="#666666"
     borderopacity="1"
     objecttolerance="10"
     gridtolerance="10"
     guidetolerance="10"
     inkscape:pageopacity="0"
     inkscape:pageshadow="2"
     inkscape:window-width="1920"
     inkscape:window-height="1017"
     id="namedview158"
     showgrid="false"
     fit-margin-top="0"
     fit-margin-left="0"
     fit-margin-right="0"
     fit-margin-bottom="0"
     inkscape:zoom="0.22961794"
     inkscape:cx="400.88897"
     inkscape:cy="-164.41773"
     inkscape:window-x="1912"
     inkscape:window-y="-8"
     inkscape:window-maximized="1"
     inkscape:current-layer="text1468-8"
     inkscape:document-rotation="0" />
  <defs
     id="defs2">
    <marker
       style="overflow:visible"
       id="marker2931"
       refX="0"
       refY="0"
       orient="auto">
      <path
         transform="scale(-0.6)"
         d="M 8.7185878,4.0337352 -2.2072895,0.01601326 8.7185884,-4.0017078 c -1.7454984,2.3720609 -1.7354408,5.6174519 -6e-7,8.035443 z"
         style="fill:#000000;fill-opacity:1;fill-rule:evenodd;stroke:#000000;stroke-width:0.625;stroke-linejoin:round;stroke-opacity:1"
         id="path2929"
         inkscape:connector-curvature="0" />
    </marker>
    <marker
       style="overflow:visible"
       id="marker2777"
       refX="0"
       refY="0"
       orient="auto">
      <path
         transform="scale(-0.6)"
         d="M 8.7185878,4.0337352 -2.2072895,0.01601326 8.7185884,-4.0017078 c -1.7454984,2.3720609 -1.7354408,5.6174519 -6e-7,8.035443 z"
         style="fill:#000000;fill-opacity:1;fill-rule:evenodd;stroke:#000000;stroke-width:0.625;stroke-linejoin:round;stroke-opacity:1"
         id="path2775"
         inkscape:connector-curvature="0" />
    </marker>
    <marker
       style="overflow:visible"
       id="marker2629"
       refX="0"
       refY="0"
       orient="auto">
      <path
         transform="scale(-0.6)"
         d="M 8.7185878,4.0337352 -2.2072895,0.01601326 8.7185884,-4.0017078 c -1.7454984,2.3720609 -1.7354408,5.6174519 -6e-7,8.035443 z"
         style="fill:#000000;fill-opacity:1;fill-rule:evenodd;stroke:#000000;stroke-width:0.625;stroke-linejoin:round;stroke-opacity:1"
         id="path2627"
         inkscape:connector-curvature="0" />
    </marker>
    <marker
       style="overflow:visible"
       id="marker2487"
       refX="0"
       refY="0"
       orient="auto">
      <path
         transform="scale(-0.6)"
         d="M 8.7185878,4.0337352 -2.2072895,0.01601326 8.7185884,-4.0017078 c -1.7454984,2.3720609 -1.7354408,5.6174519 -6e-7,8.035443 z"
         style="fill:#000000;fill-opacity:1;fill-rule:evenodd;stroke:#000000;stroke-width:0.625;stroke-linejoin:round;stroke-opacity:1"
         id="path2485"
         inkscape:connector-curvature="0" />
    </marker>
    <marker
       style="overflow:visible"
       id="marker2351"
       refX="0"
       refY="0"
       orient="auto">
      <path
         transform="matrix(-0.4,0,0,-0.4,-4,0)"
         style="fill:#000000;fill-opacity:1;fill-rule:evenodd;stroke:#000000;stroke-width:1pt;stroke-opacity:1"
         d="M 0,0 5,-5 -12.5,0 5,5 Z"
         id="path2349"
         inkscape:connector-curvature="0" />
    </marker>
    <marker
       style="overflow:visible"
       id="Arrow1Mend"
       refX="0"
       refY="0"
       orient="auto">
      <path
         transform="matrix(-0.4,0,0,-0.4,-4,0)"
         style="fill:#000000;fill-opacity:1;fill-rule:evenodd;stroke:#000000;stroke-width:1pt;stroke-opacity:1"
         d="M 0,0 5,-5 -12.5,0 5,5 Z"
         id="path1100"
         inkscape:connector-curvature="0" />
    </marker>
    <marker
       style="overflow:visible"
       id="Arrow2Send"
       refX="0"
       refY="0"
       orient="auto">
      <path
         transform="matrix(-0.3,0,0,-0.3,0.69,0)"
         d="M 8.7185878,4.0337352 -2.2072895,0.01601326 8.7185884,-4.0017078 c -1.7454984,2.3720609 -1.7354408,5.6174519 -6e-7,8.035443 z"
         style="fill:#000000;fill-opacity:1;fill-rule:evenodd;stroke:#000000;stroke-width:0.625;stroke-linejoin:round;stroke-opacity:1"
         id="path1124"
         inkscape:connector-curvature="0" />
    </marker>
    <marker
       style="overflow:visible"
       id="Arrow1Send"
       refX="0"
       refY="0"
       orient="auto">
      <path
         transform="matrix(-0.2,0,0,-0.2,-1.2,0)"
         style="fill:#000000;fill-opacity:1;fill-rule:evenodd;stroke:#000000;stroke-width:1pt;stroke-opacity:1"
         d="M 0,0 5,-5 -12.5,0 5,5 Z"
         id="path1106"
         inkscape:connector-curvature="0" />
    </marker>
    <marker
       style="overflow:visible"
       id="marker1597"
       refX="0"
       refY="0"
       orient="auto">
      <path
         transform="scale(-0.6)"
         d="M 8.7185878,4.0337352 -2.2072895,0.01601326 8.7185884,-4.0017078 c -1.7454984,2.3720609 -1.7354408,5.6174519 -6e-7,8.035443 z"
         style="fill:#000000;fill-opacity:1;fill-rule:evenodd;stroke:#000000;stroke-width:0.625;stroke-linejoin:round;stroke-opacity:1"
         id="path1595"
         inkscape:connector-curvature="0" />
    </marker>
    <marker
       style="overflow:visible"
       id="Arrow2Mend"
       refX="0"
       refY="0"
       orient="auto">
      <path
         transform="scale(-0.6)"
         d="M 8.7185878,4.0337352 -2.2072895,0.01601326 8.7185884,-4.0017078 c -1.7454984,2.3720609 -1.7354408,5.6174519 -6e-7,8.035443 z"
         style="fill:#000000;fill-opacity:1;fill-rule:evenodd;stroke:#000000;stroke-width:0.625;stroke-linejoin:round;stroke-opacity:1"
         id="path1118"
         inkscape:connector-curvature="0" />
    </marker>
    <marker
       orient="auto"
       refY="0"
       refX="0"
       id="marker10948"
       style="overflow:visible">
      <path
         id="path10946"
         d="m -2.5,-1 c 0,2.76 -2.24,5 -5,5 -2.76,0 -5,-2.24 -5,-5 0,-2.76 2.24,-5 5,-5 2.76,0 5,2.24 5,5 z"
         style="fill:#3a001c;fill-opacity:1;fill-rule:evenodd;stroke:#3a001c;stroke-width:1pt;stroke-opacity:1"
         transform="matrix(0.2,0,0,0.2,1.48,0.2)"
         inkscape:connector-curvature="0" />
    </marker>
    <marker
       orient="auto"
       refY="0"
       refX="0"
       id="marker10836"
       style="overflow:visible">
      <path
         id="path10834"
         d="m -2.5,-1 c 0,2.76 -2.24,5 -5,5 -2.76,0 -5,-2.24 -5,-5 0,-2.76 2.24,-5 5,-5 2.76,0 5,2.24 5,5 z"
         style="fill:#3a001c;fill-opacity:1;fill-rule:evenodd;stroke:#3a001c;stroke-width:1pt;stroke-opacity:1"
         transform="matrix(0.2,0,0,0.2,1.48,0.2)"
         inkscape:connector-curvature="0" />
    </marker>
    <marker
       style="overflow:visible"
       id="marker10664"
       refX="0"
       refY="0"
       orient="auto">
      <path
         transform="matrix(0.2,0,0,0.2,1.48,0.2)"
         style="fill:#3a001c;fill-opacity:1;fill-rule:evenodd;stroke:#3a001c;stroke-width:1pt;stroke-opacity:1"
         d="m -2.5,-1 c 0,2.76 -2.24,5 -5,5 -2.76,0 -5,-2.24 -5,-5 0,-2.76 2.24,-5 5,-5 2.76,0 5,2.24 5,5 z"
         id="path10662"
         inkscape:connector-curvature="0" />
    </marker>
    <marker
       orient="auto"
       refY="0"
       refX="0"
       id="marker10414"
       style="overflow:visible">
      <path
         id="path10412"
         d="m -2.5,-1 c 0,2.76 -2.24,5 -5,5 -2.76,0 -5,-2.24 -5,-5 0,-2.76 2.24,-5 5,-5 2.76,0 5,2.24 5,5 z"
         style="fill:#3a001c;fill-opacity:1;fill-rule:evenodd;stroke:#3a001c;stroke-width:1pt;stroke-opacity:1"
         transform="matrix(0.2,0,0,0.2,1.48,0.2)"
         inkscape:connector-curvature="0" />
    </marker>
    <marker
       orient="auto"
       refY="0"
       refX="0"
       id="marker10308"
       style="overflow:visible">
      <path
         id="path10306"
         d="m -2.5,-1 c 0,2.76 -2.24,5 -5,5 -2.76,0 -5,-2.24 -5,-5 0,-2.76 2.24,-5 5,-5 2.76,0 5,2.24 5,5 z"
         style="fill:#3a001c;fill-opacity:1;fill-rule:evenodd;stroke:#3a001c;stroke-width:1pt;stroke-opacity:1"
         transform="matrix(0.2,0,0,0.2,1.48,0.2)"
         inkscape:connector-curvature="0" />
    </marker>
    <marker
       style="overflow:visible"
       id="DotS"
       refX="0"
       refY="0"
       orient="auto">
      <path
         transform="matrix(0.2,0,0,0.2,1.48,0.2)"
         style="fill:#3a001c;fill-opacity:1;fill-rule:evenodd;stroke:#3a001c;stroke-width:1pt;stroke-opacity:1"
         d="m -2.5,-1 c 0,2.76 -2.24,5 -5,5 -2.76,0 -5,-2.24 -5,-5 0,-2.76 2.24,-5 5,-5 2.76,0 5,2.24 5,5 z"
         id="path4919"
         inkscape:connector-curvature="0" />
    </marker>
    <marker
       style="overflow:visible"
       id="DotM"
       refX="0"
       refY="0"
       orient="auto">
      <path
         transform="matrix(0.4,0,0,0.4,2.96,0.4)"
         style="fill:#000000;fill-opacity:1;fill-rule:evenodd;stroke:#000000;stroke-width:1pt;stroke-opacity:1"
         d="m -2.5,-1 c 0,2.76 -2.24,5 -5,5 -2.76,0 -5,-2.24 -5,-5 0,-2.76 2.24,-5 5,-5 2.76,0 5,2.24 5,5 z"
         id="path4916"
         inkscape:connector-curvature="0" />
    </marker>
    <marker
       style="overflow:visible"
       id="DotL"
       refX="0"
       refY="0"
       orient="auto">
      <path
         transform="matrix(0.8,0,0,0.8,5.92,0.8)"
         style="fill:#000000;fill-opacity:1;fill-rule:evenodd;stroke:#000000;stroke-width:1pt;stroke-opacity:1"
         d="m -2.5,-1 c 0,2.76 -2.24,5 -5,5 -2.76,0 -5,-2.24 -5,-5 0,-2.76 2.24,-5 5,-5 2.76,0 5,2.24 5,5 z"
         id="path4913"
         inkscape:connector-curvature="0" />
    </marker>
    <clipPath
       id="clipPath8">
      <path
         id="path10"
         d="M -20,50 10,13 c 5.522847,0 10,4.477153 10,10 L 40,50 20,-30"
         inkscape:connector-curvature="0" />
    </clipPath>
    <marker
       style="overflow:visible"
       id="DotS-3"
       refX="0"
       refY="0"
       orient="auto">
      <path
         transform="matrix(0.2,0,0,0.2,1.48,0.2)"
         style="fill:#3a001c;fill-opacity:1;fill-rule:evenodd;stroke:#3a001c;stroke-width:1pt;stroke-opacity:1"
         d="m -2.5,-1 c 0,2.76 -2.24,5 -5,5 -2.76,0 -5,-2.24 -5,-5 0,-2.76 2.24,-5 5,-5 2.76,0 5,2.24 5,5 z"
         id="path4919-5"
         inkscape:connector-curvature="0" />
    </marker>
    <marker
       style="overflow:visible"
       id="DotS-3-7"
       refX="0"
       refY="0"
       orient="auto">
      <path
         transform="matrix(0.2,0,0,0.2,1.48,0.2)"
         style="fill:#3a001c;fill-opacity:1;fill-rule:evenodd;stroke:#3a001c;stroke-width:1pt;stroke-opacity:1"
         d="m -2.5,-1 c 0,2.76 -2.24,5 -5,5 -2.76,0 -5,-2.24 -5,-5 0,-2.76 2.24,-5 5,-5 2.76,0 5,2.24 5,5 z"
         id="path4919-5-2"
         inkscape:connector-curvature="0" />
    </marker>
    <marker
       style="overflow:visible"
       id="DotS-0"
       refX="0"
       refY="0"
       orient="auto">
      <path
         transform="matrix(0.2,0,0,0.2,1.48,0.2)"
         style="fill:#3a001c;fill-opacity:1;fill-rule:evenodd;stroke:#3a001c;stroke-width:1pt;stroke-opacity:1"
         d="m -2.5,-1 c 0,2.76 -2.24,5 -5,5 -2.76,0 -5,-2.24 -5,-5 0,-2.76 2.24,-5 5,-5 2.76,0 5,2.24 5,5 z"
         id="path4919-2"
         inkscape:connector-curvature="0" />
    </marker>
    <marker
       style="overflow:visible"
       id="DotS-3-70"
       refX="0"
       refY="0"
       orient="auto">
      <path
         transform="matrix(0.2,0,0,0.2,1.48,0.2)"
         style="fill:#ffffff;fill-opacity:1;fill-rule:evenodd;stroke:#ffffff;stroke-width:1pt;stroke-opacity:1"
         d="m -2.5,-1 c 0,2.76 -2.24,5 -5,5 -2.76,0 -5,-2.24 -5,-5 0,-2.76 2.24,-5 5,-5 2.76,0 5,2.24 5,5 z"
         id="path4919-5-9"
         inkscape:connector-curvature="0" />
    </marker>
    <marker
       style="overflow:visible"
       id="DotS-4"
       refX="0"
       refY="0"
       orient="auto">
      <path
         transform="matrix(0.2,0,0,0.2,1.48,0.2)"
         style="fill:#3a001c;fill-opacity:1;fill-rule:evenodd;stroke:#3a001c;stroke-width:1pt;stroke-opacity:1"
         d="m -2.5,-1 c 0,2.76 -2.24,5 -5,5 -2.76,0 -5,-2.24 -5,-5 0,-2.76 2.24,-5 5,-5 2.76,0 5,2.24 5,5 z"
         id="path4919-1"
         inkscape:connector-curvature="0" />
    </marker>
    <marker
       style="overflow:visible"
       id="DotS-4-8"
       refX="0"
       refY="0"
       orient="auto">
      <path
         transform="matrix(0.2,0,0,0.2,1.48,0.2)"
         style="fill:#ffffff;fill-opacity:1;fill-rule:evenodd;stroke:#000000;stroke-width:1pt;stroke-opacity:1"
         d="m -2.5,-1 c 0,2.76 -2.24,5 -5,5 -2.76,0 -5,-2.24 -5,-5 0,-2.76 2.24,-5 5,-5 2.76,0 5,2.24 5,5 z"
         id="path4919-1-2"
         inkscape:connector-curvature="0" />
    </marker>
    <filter
       y="-0.25"
       x="-0.25"
       height="1.5"
       width="1.5"
       id="filter3001"
       style="color-interpolation-filters:sRGB">
      <feGaussianBlur
         result="blur"
         stdDeviation="3"
         in="SourceAlpha"
         id="feGaussianBlur3003" />
      <feColorMatrix
         values="1 0 0 0 0 0 1 0 0 0 0 0 1 0 0 0 0 0 0.6 0 "
         type="matrix"
         result="bluralpha"
         id="feColorMatrix3005" />
      <feOffset
         result="offsetBlur"
         dy="6"
         dx="6"
         in="bluralpha"
         id="feOffset3007" />
      <feMerge
         id="feMerge3009">
        <feMergeNode
           in="offsetBlur"
           id="feMergeNode3011" />
        <feMergeNode
           in="SourceGraphic"
           id="feMergeNode3013" />
      </feMerge>
    </filter>
    <marker
       style="overflow:visible"
       id="marker2931-1"
       refX="0"
       refY="0"
       orient="auto">
      <path
         transform="scale(-0.6)"
         d="M 8.7185878,4.0337352 -2.2072895,0.01601326 8.7185884,-4.0017078 c -1.7454984,2.3720609 -1.7354408,5.6174519 -6e-7,8.035443 z"
         style="fill:#000000;fill-opacity:1;fill-rule:evenodd;stroke:#000000;stroke-width:0.625;stroke-linejoin:round;stroke-opacity:1"
         id="path2929-8"
         inkscape:connector-curvature="0" />
    </marker>
    <clipPath
       id="clipPath8-3">
      <path
         id="path10-1"
         d="M -20,50 10,13 c 5.522847,0 10,4.477153 10,10 L 40,50 20,-30"
         inkscape:connector-curvature="0" />
    </clipPath>
    <clipPath
       id="clipPath3733">
      <path
         id="path3731"
         d="M -20,50 10,13 c 5.522847,0 10,4.477153 10,10 L 40,50 20,-30"
         inkscape:connector-curvature="0" />
    </clipPath>
    <clipPath
       id="clipPath8-5">
      <path
         id="path10-5"
         d="M -20,50 10,13 c 5.522847,0 10,4.477153 10,10 L 40,50 20,-30"
         inkscape:connector-curvature="0" />
    </clipPath>
    <clipPath
       id="clipPath4087">
      <path
         id="path4085"
         d="M -20,50 10,13 c 5.522847,0 10,4.477153 10,10 L 40,50 20,-30"
         inkscape:connector-curvature="0" />
    </clipPath>
    <marker
       style="overflow:visible"
       id="marker2931-2"
       refX="0"
       refY="0"
       orient="auto">
      <path
         transform="scale(-0.6)"
         d="M 8.7185878,4.0337352 -2.2072895,0.01601326 8.7185884,-4.0017078 c -1.7454984,2.3720609 -1.7354408,5.6174519 -6e-7,8.035443 z"
         style="fill:#000000;fill-opacity:1;fill-rule:evenodd;stroke:#000000;stroke-width:0.625;stroke-linejoin:round;stroke-opacity:1"
         id="path2929-0"
         inkscape:connector-curvature="0" />
    </marker>
    <clipPath
       id="clipPath8-5-9">
      <path
         id="path10-5-5"
         d="M -20,50 10,13 c 5.522847,0 10,4.477153 10,10 L 40,50 20,-30"
         inkscape:connector-curvature="0" />
    </clipPath>
    <clipPath
       id="clipPath4451">
      <path
         id="path4449"
         d="M -20,50 10,13 c 5.522847,0 10,4.477153 10,10 L 40,50 20,-30"
         inkscape:connector-curvature="0" />
    </clipPath>
    <marker
       style="overflow:visible"
       id="marker2931-2-9"
       refX="0"
       refY="0"
       orient="auto">
      <path
         transform="scale(-0.6)"
         d="M 8.7185878,4.0337352 -2.2072895,0.01601326 8.7185884,-4.0017078 c -1.7454984,2.3720609 -1.7354408,5.6174519 -6e-7,8.035443 z"
         style="fill:#000000;fill-opacity:1;fill-rule:evenodd;stroke:#000000;stroke-width:0.625;stroke-linejoin:round;stroke-opacity:1"
         id="path2929-0-1"
         inkscape:connector-curvature="0" />
    </marker>
    <clipPath
       id="clipPath8-5-9-1">
      <path
         id="path10-5-5-8"
         d="M -20,50 10,13 c 5.522847,0 10,4.477153 10,10 L 40,50 20,-30"
         inkscape:connector-curvature="0" />
    </clipPath>
    <clipPath
       id="clipPath4860">
      <path
         id="path4858"
         d="M -20,50 10,13 c 5.522847,0 10,4.477153 10,10 L 40,50 20,-30"
         inkscape:connector-curvature="0" />
    </clipPath>
    <marker
       style="overflow:visible"
       id="marker2931-2-9-7"
       refX="0"
       refY="0"
       orient="auto">
      <path
         transform="scale(-0.6)"
         d="M 8.7185878,4.0337352 -2.2072895,0.01601326 8.7185884,-4.0017078 c -1.7454984,2.3720609 -1.7354408,5.6174519 -6e-7,8.035443 z"
         style="fill:#000000;fill-opacity:1;fill-rule:evenodd;stroke:#000000;stroke-width:0.625;stroke-linejoin:round;stroke-opacity:1"
         id="path2929-0-1-6"
         inkscape:connector-curvature="0" />
    </marker>
    <clipPath
       id="clipPath8-1">
      <path
         id="path10-9"
         d="M -20,50 10,13 c 5.522847,0 10,4.477153 10,10 L 40,50 20,-30"
         inkscape:connector-curvature="0" />
    </clipPath>
    <clipPath
       id="clipPath1674">
      <path
         id="path1672"
         d="M -20,50 10,13 c 5.522847,0 10,4.477153 10,10 L 40,50 20,-30"
         inkscape:connector-curvature="0" />
    </clipPath>
    <clipPath
       id="clipPath8-6">
      <path
         id="path10-8"
         d="M -20,50 10,13 c 5.522847,0 10,4.477153 10,10 L 40,50 20,-30"
         inkscape:connector-curvature="0" />
    </clipPath>
    <clipPath
       id="clipPath1674-4">
      <path
         id="path1672-1"
         d="M -20,50 10,13 c 5.522847,0 10,4.477153 10,10 L 40,50 20,-30"
         inkscape:connector-curvature="0" />
    </clipPath>
    <clipPath
       id="clipPath8-9">
      <path
         id="path10-7"
         d="M -20,50 10,13 c 5.522847,0 10,4.477153 10,10 L 40,50 20,-30"
         inkscape:connector-curvature="0" />
    </clipPath>
    <clipPath
       id="clipPath1674-45">
      <path
         id="path1672-0"
         d="M -20,50 10,13 c 5.522847,0 10,4.477153 10,10 L 40,50 20,-30"
         inkscape:connector-curvature="0" />
    </clipPath>
    <clipPath
       id="clipPath8-7">
      <path
         id="path10-72"
         d="M -20,50 10,13 c 5.522847,0 10,4.477153 10,10 L 40,50 20,-30"
         inkscape:connector-curvature="0" />
    </clipPath>
    <clipPath
       id="clipPath1540">
      <path
         id="path1538"
         d="M -20,50 10,13 c 5.522847,0 10,4.477153 10,10 L 40,50 20,-30"
         inkscape:connector-curvature="0" />
    </clipPath>
    <clipPath
       id="clipPath8-66">
      <path
         id="path10-85"
         d="M -20,50 10,13 c 5.522847,0 10,4.477153 10,10 L 40,50 20,-30"
         inkscape:connector-curvature="0" />
    </clipPath>
    <clipPath
       id="clipPath1540-1">
      <path
         id="path1538-4"
         d="M -20,50 10,13 c 5.522847,0 10,4.477153 10,10 L 40,50 20,-30"
         inkscape:connector-curvature="0" />
    </clipPath>
    <clipPath
       id="clipPath8-16">
      <path
         id="path10-50"
         d="M -20,50 10,13 c 5.522847,0 10,4.477153 10,10 L 40,50 20,-30"
         inkscape:connector-curvature="0" />
    </clipPath>
    <clipPath
       id="clipPath1540-0">
      <path
         id="path1538-7"
         d="M -20,50 10,13 c 5.522847,0 10,4.477153 10,10 L 40,50 20,-30"
         inkscape:connector-curvature="0" />
    </clipPath>
  </defs>
  <metadata
     id="metadata5">
    <rdf:RDF>
      <cc:Work
         rdf:about="">
        <dc:format>image/svg+xml</dc:format>
        <dc:type
           rdf:resource="http://purl.org/dc/dcmitype/StillImage" />
        <dc:title></dc:title>
      </cc:Work>
    </rdf:RDF>
  </metadata>
  <g
     aria-label="Wissensbasis Barrierefreiheit"
     transform="scale(0.87650063,1.1409005)"
     id="text1468-8"
     style="font-style:normal;font-variant:normal;font-weight:normal;font-stretch:normal;font-size:36.0323px;line-height:1.25;font-family:'Arial Rounded MT Bold';-inkscape-font-specification:'Arial Rounded MT Bold, ';letter-spacing:0px;word-spacing:0px;fill:#000000;fill-opacity:1;stroke:none;stroke-width:0.900808;stroke-opacity:1">
    <path
       d="m 23.765569,53.477036 h 6.451338 l 4.510692,18.969382 4.475725,-18.969382 h 6.486305 l 4.475725,18.969382 4.510692,-18.969382 h 6.398888 L 54.920812,79.579605 H 47.158226 L 42.420251,59.736058 37.734726,79.579605 h -7.762585 z"
       style="font-style:normal;font-variant:normal;font-weight:bold;font-stretch:normal;font-family:sans-serif;-inkscape-font-specification:'sans-serif Bold';stroke:none;stroke-width:0.900808;stroke-opacity:1"
       id="path115" />
    <path
       d="m 65.200993,59.998307 h 6.259022 v 19.581298 h -6.259022 z m 0,-7.622719 h 6.259022 v 5.105124 h -6.259022 z"
       style="font-style:normal;font-variant:normal;font-weight:bold;font-stretch:normal;font-family:sans-serif;-inkscape-font-specification:'sans-serif Bold';stroke:none;stroke-width:0.900808;stroke-opacity:1"
       id="path117" />
    <path
       d="m 92.772159,60.610223 v 4.755458 q -2.01058,-0.839198 -3.881293,-1.258798 -1.870713,-0.419599 -3.531627,-0.419599 -1.783297,0 -2.657462,0.454566 -0.856682,0.437082 -0.856682,1.363697 0,0.751782 0.646882,1.153898 0.664366,0.402116 2.360246,0.594433 l 1.101448,0.157349 q 4.807908,0.611916 6.468822,2.01058 1.660913,1.398664 1.660913,4.388309 0,3.129511 -2.307795,4.703008 -2.307796,1.573497 -6.888421,1.573497 -1.940647,0 -4.02116,-0.3147 -2.063029,-0.297216 -4.248442,-0.909131 v -4.755458 q 1.870713,0.909131 3.828843,1.363697 1.975613,0.454566 4.003676,0.454566 1.835747,0 2.762362,-0.507016 0.926615,-0.507015 0.926615,-1.503564 0,-0.839198 -0.646882,-1.241314 -0.629399,-0.419599 -2.535079,-0.646882 l -1.101448,-0.139867 q -4.178509,-0.524499 -5.856906,-1.940646 -1.678397,-1.416147 -1.678397,-4.300892 0,-3.112028 2.132963,-4.615592 2.132963,-1.503564 6.538755,-1.503564 1.730846,0 3.636526,0.26225 1.90568,0.262249 4.143543,0.821715 z"
       style="font-style:normal;font-variant:normal;font-weight:bold;font-stretch:normal;font-family:sans-serif;-inkscape-font-specification:'sans-serif Bold';stroke:none;stroke-width:0.900808;stroke-opacity:1"
       id="path119" />
    <path
       d="m 114.0843,60.610223 v 4.755458 q -2.01058,-0.839198 -3.88129,-1.258798 -1.87071,-0.419599 -3.53163,-0.419599 -1.78329,0 -2.65746,0.454566 -0.85668,0.437082 -0.85668,1.363697 0,0.751782 0.64688,1.153898 0.66437,0.402116 2.36025,0.594433 l 1.10145,0.157349 q 4.8079,0.611916 6.46882,2.01058 1.66091,1.398664 1.66091,4.388309 0,3.129511 -2.30779,4.703008 -2.3078,1.573497 -6.88842,1.573497 -1.94065,0 -4.02116,-0.3147 -2.06303,-0.297216 -4.248447,-0.909131 v -4.755458 q 1.870714,0.909131 3.828847,1.363697 1.97561,0.454566 4.00367,0.454566 1.83575,0 2.76236,-0.507016 0.92662,-0.507015 0.92662,-1.503564 0,-0.839198 -0.64688,-1.241314 -0.6294,-0.419599 -2.53508,-0.646882 l -1.10145,-0.139867 q -4.17851,-0.524499 -5.856906,-1.940646 -1.678397,-1.416147 -1.678397,-4.300892 0,-3.112028 2.132963,-4.615592 2.13296,-1.503564 6.53875,-1.503564 1.73085,0 3.63653,0.26225 1.90568,0.262249 4.14354,0.821715 z"
       style="font-style:normal;font-variant:normal;font-weight:bold;font-stretch:normal;font-family:sans-serif;-inkscape-font-specification:'sans-serif Bold';stroke:none;stroke-width:0.900808;stroke-opacity:1"
       id="path121" />
    <path
       d="m 139.6449,69.736506 v 1.783297 h -14.63353 q 0.22728,2.202896 1.59098,3.304344 1.3637,1.101448 3.81136,1.101448 1.97562,0 4.03864,-0.576949 2.08052,-0.594432 4.26593,-1.783297 v 4.825392 q -2.22038,0.839198 -4.44076,1.258797 -2.22038,0.437083 -4.44076,0.437083 -5.31492,0 -8.2696,-2.692429 -2.93719,-2.709911 -2.93719,-7.587752 0,-4.790425 2.88474,-7.535303 2.90223,-2.744879 7.97239,-2.744879 4.61559,0 7.37795,2.779845 2.77985,2.779845 2.77985,7.430403 z m -6.43386,-2.080512 q 0,-1.783297 -1.049,-2.867262 -1.03151,-1.101448 -2.70991,-1.101448 -1.81826,0 -2.95468,1.031515 -1.13641,1.014031 -1.41614,2.937195 z"
       style="font-style:normal;font-variant:normal;font-weight:bold;font-stretch:normal;font-family:sans-serif;-inkscape-font-specification:'sans-serif Bold';stroke:none;stroke-width:0.900808;stroke-opacity:1"
       id="path123" />
    <path
       d="m 164.06906,67.655994 v 11.923611 h -6.29399 v -1.940646 -7.185637 q 0,-2.535079 -0.12238,-3.496661 -0.1049,-0.961581 -0.38463,-1.416147 -0.36715,-0.611916 -0.99655,-0.944098 -0.6294,-0.349666 -1.43363,-0.349666 -1.95813,0 -3.07706,1.521047 -1.11893,1.503564 -1.11893,4.178509 v 9.633299 h -6.25902 V 59.998307 h 6.25902 v 2.867262 q 1.41615,-1.713364 3.00713,-2.517596 1.59098,-0.821715 3.51414,-0.821715 3.39176,0 5.14009,2.080513 1.76581,2.080513 1.76581,6.049223 z"
       style="font-style:normal;font-variant:normal;font-weight:bold;font-stretch:normal;font-family:sans-serif;-inkscape-font-specification:'sans-serif Bold';stroke:none;stroke-width:0.900808;stroke-opacity:1"
       id="path125" />
    <path
       d="m 185.1714,60.610223 v 4.755458 q -2.01058,-0.839198 -3.88129,-1.258798 -1.87072,-0.419599 -3.53163,-0.419599 -1.7833,0 -2.65746,0.454566 -0.85668,0.437082 -0.85668,1.363697 0,0.751782 0.64688,1.153898 0.66437,0.402116 2.36025,0.594433 l 1.10144,0.157349 q 4.80791,0.611916 6.46883,2.01058 1.66091,1.398664 1.66091,4.388309 0,3.129511 -2.3078,4.703008 -2.30779,1.573497 -6.88842,1.573497 -1.94064,0 -4.02116,-0.3147 -2.06303,-0.297216 -4.24844,-0.909131 v -4.755458 q 1.87071,0.909131 3.82884,1.363697 1.97562,0.454566 4.00368,0.454566 1.83575,0 2.76236,-0.507016 0.92662,-0.507015 0.92662,-1.503564 0,-0.839198 -0.64689,-1.241314 -0.62939,-0.419599 -2.53507,-0.646882 l -1.10145,-0.139867 q -4.17851,-0.524499 -5.85691,-1.940646 -1.6784,-1.416147 -1.6784,-4.300892 0,-3.112028 2.13297,-4.615592 2.13296,-1.503564 6.53875,-1.503564 1.73085,0 3.63653,0.26225 1.90568,0.262249 4.14354,0.821715 z"
       style="font-style:normal;font-variant:normal;font-weight:bold;font-stretch:normal;font-family:sans-serif;-inkscape-font-specification:'sans-serif Bold';stroke:none;stroke-width:0.900808;stroke-opacity:1"
       id="path127" />
    <path
       d="m 201.60571,75.540962 q 2.01058,0 3.05958,-1.468597 1.06648,-1.468597 1.06648,-4.265925 0,-2.797329 -1.06648,-4.265926 -1.049,-1.468597 -3.05958,-1.468597 -2.01058,0 -3.09455,1.48608 -1.06648,1.468598 -1.06648,4.248443 0,2.779845 1.06648,4.265925 1.08397,1.468597 3.09455,1.468597 z m -4.16103,-12.675393 q 1.29377,-1.713364 2.86726,-2.517596 1.5735,-0.821715 3.61905,-0.821715 3.61904,0 5.94432,2.884745 2.32528,2.867262 2.32528,7.395437 0,4.528175 -2.32528,7.412919 -2.32528,2.867262 -5.94432,2.867262 -2.04555,0 -3.61905,-0.804232 -1.57349,-0.821715 -2.86726,-2.535079 v 2.832295 h -6.25902 V 52.375588 h 6.25902 z"
       style="font-style:normal;font-variant:normal;font-weight:bold;font-stretch:normal;font-family:sans-serif;-inkscape-font-specification:'sans-serif Bold';stroke:none;stroke-width:0.900808;stroke-opacity:1"
       id="path129" />
    <path
       d="m 225.5928,70.768021 q -1.95813,0 -2.95468,0.664366 -0.97906,0.664365 -0.97906,1.958129 0,1.188865 0.78675,1.870714 0.80423,0.664365 2.22038,0.664365 1.76581,0 2.97216,-1.258798 1.20635,-1.276281 1.20635,-3.18196 v -0.716816 z m 9.56337,-2.360246 v 11.17183 h -6.31147 v -2.902228 q -1.2588,1.783297 -2.8323,2.605012 -1.5735,0.804232 -3.82884,0.804232 -3.0421,0 -4.94778,-1.765814 -1.88819,-1.783296 -1.88819,-4.615591 0,-3.444211 2.36024,-5.052674 2.37773,-1.608464 7.44789,-1.608464 h 3.68898 v -0.489532 q 0,-1.486081 -1.17138,-2.16793 -1.17139,-0.699332 -3.65401,-0.699332 -2.01058,0 -3.74143,0.402116 -1.73085,0.402116 -3.21693,1.206348 v -4.772941 q 2.01058,-0.489533 4.03864,-0.734299 2.02807,-0.26225 4.05613,-0.26225 5.29744,0 7.6402,2.097997 2.36025,2.080512 2.36025,6.78352 z"
       style="font-style:normal;font-variant:normal;font-weight:bold;font-stretch:normal;font-family:sans-serif;-inkscape-font-specification:'sans-serif Bold';stroke:none;stroke-width:0.900808;stroke-opacity:1"
       id="path131" />
    <path
       d="m 256.276,60.610223 v 4.755458 q -2.01058,-0.839198 -3.88129,-1.258798 -1.87072,-0.419599 -3.53163,-0.419599 -1.7833,0 -2.65746,0.454566 -0.85668,0.437082 -0.85668,1.363697 0,0.751782 0.64688,1.153898 0.66436,0.402116 2.36024,0.594433 l 1.10145,0.157349 q 4.80791,0.611916 6.46882,2.01058 1.66092,1.398664 1.66092,4.388309 0,3.129511 -2.3078,4.703008 -2.30779,1.573497 -6.88842,1.573497 -1.94065,0 -4.02116,-0.3147 -2.06303,-0.297216 -4.24844,-0.909131 v -4.755458 q 1.87071,0.909131 3.82884,1.363697 1.97562,0.454566 4.00368,0.454566 1.83575,0 2.76236,-0.507016 0.92662,-0.507015 0.92662,-1.503564 0,-0.839198 -0.64689,-1.241314 -0.6294,-0.419599 -2.53508,-0.646882 l -1.10144,-0.139867 q -4.17851,-0.524499 -5.85691,-1.940646 -1.6784,-1.416147 -1.6784,-4.300892 0,-3.112028 2.13297,-4.615592 2.13296,-1.503564 6.53875,-1.503564 1.73085,0 3.63653,0.26225 1.90568,0.262249 4.14354,0.821715 z"
       style="font-style:normal;font-variant:normal;font-weight:bold;font-stretch:normal;font-family:sans-serif;-inkscape-font-specification:'sans-serif Bold';stroke:none;stroke-width:0.900808;stroke-opacity:1"
       id="path133" />
    <path
       d="m 262.29026,59.998307 h 6.25902 v 19.581298 h -6.25902 z m 0,-7.622719 h 6.25902 v 5.105124 h -6.25902 z"
       style="font-style:normal;font-variant:normal;font-weight:bold;font-stretch:normal;font-family:sans-serif;-inkscape-font-specification:'sans-serif Bold';stroke:none;stroke-width:0.900808;stroke-opacity:1"
       id="path135" />
    <path
       d="m 289.86142,60.610223 v 4.755458 q -2.01058,-0.839198 -3.88129,-1.258798 -1.87072,-0.419599 -3.53163,-0.419599 -1.7833,0 -2.65746,0.454566 -0.85668,0.437082 -0.85668,1.363697 0,0.751782 0.64688,1.153898 0.66436,0.402116 2.36024,0.594433 l 1.10145,0.157349 q 4.80791,0.611916 6.46882,2.01058 1.66092,1.398664 1.66092,4.388309 0,3.129511 -2.3078,4.703008 -2.3078,1.573497 -6.88842,1.573497 -1.94065,0 -4.02116,-0.3147 -2.06303,-0.297216 -4.24844,-0.909131 v -4.755458 q 1.87071,0.909131 3.82884,1.363697 1.97561,0.454566 4.00368,0.454566 1.83574,0 2.76236,-0.507016 0.92661,-0.507015 0.92661,-1.503564 0,-0.839198 -0.64688,-1.241314 -0.6294,-0.419599 -2.53508,-0.646882 l -1.10144,-0.139867 q -4.17851,-0.524499 -5.85691,-1.940646 -1.6784,-1.416147 -1.6784,-4.300892 0,-3.112028 2.13296,-4.615592 2.13297,-1.503564 6.53876,-1.503564 1.73085,0 3.63653,0.26225 1.90568,0.262249 4.14354,0.821715 z"
       style="font-style:normal;font-variant:normal;font-weight:bold;font-stretch:normal;font-family:sans-serif;-inkscape-font-specification:'sans-serif Bold';stroke:none;stroke-width:0.900808;stroke-opacity:1"
       id="path137" />
    <path
       d="m 319.076,63.582384 q 1.59098,0 2.4127,-0.699332 0.82171,-0.699332 0.82171,-2.063029 0,-1.346215 -0.82171,-2.045547 -0.82172,-0.716815 -2.4127,-0.716815 h -3.72394 v 5.524723 z m 0.22729,11.416596 q 2.02806,0 3.04209,-0.856682 1.03151,-0.856681 1.03151,-2.587528 0,-1.695881 -1.01403,-2.535079 -1.01403,-0.856682 -3.05957,-0.856682 h -3.95123 v 6.835971 z m 6.25902,-9.388533 q 2.16793,0.629399 3.35679,2.325279 1.18887,1.695881 1.18887,4.161026 0,3.776393 -2.55257,5.629623 -2.55256,1.85323 -7.76258,1.85323 H 308.62099 V 53.477036 h 10.10535 q 5.4373,0 7.86748,1.64343 2.44766,1.643431 2.44766,5.262474 0,1.90568 -0.89164,3.251894 -0.89165,1.328731 -2.58753,1.975613 z"
       style="font-style:normal;font-variant:normal;font-weight:bold;font-stretch:normal;font-family:sans-serif;-inkscape-font-specification:'sans-serif Bold';stroke:none;stroke-width:0.900808;stroke-opacity:1"
       id="path139" />
    <path
       d="m 344.40932,70.768021 q -1.95813,0 -2.95468,0.664366 -0.97907,0.664365 -0.97907,1.958129 0,1.188865 0.78675,1.870714 0.80423,0.664365 2.22038,0.664365 1.76581,0 2.97216,-1.258798 1.20635,-1.276281 1.20635,-3.18196 v -0.716816 z m 9.56336,-2.360246 v 11.17183 h -6.31147 v -2.902228 q -1.2588,1.783297 -2.8323,2.605012 -1.57349,0.804232 -3.82884,0.804232 -3.04209,0 -4.94777,-1.765814 -1.8882,-1.783296 -1.8882,-4.615591 0,-3.444211 2.36025,-5.052674 2.37773,-1.608464 7.44788,-1.608464 h 3.68898 v -0.489532 q 0,-1.486081 -1.17138,-2.16793 -1.17138,-0.699332 -3.65401,-0.699332 -2.01058,0 -3.74143,0.402116 -1.73085,0.402116 -3.21693,1.206348 v -4.772941 q 2.01058,-0.489533 4.03865,-0.734299 2.02806,-0.26225 4.05612,-0.26225 5.29744,0 7.64021,2.097997 2.36024,2.080512 2.36024,6.78352 z"
       style="font-style:normal;font-variant:normal;font-weight:bold;font-stretch:normal;font-family:sans-serif;-inkscape-font-specification:'sans-serif Bold';stroke:none;stroke-width:0.900808;stroke-opacity:1"
       id="path141" />
    <path
       d="m 374.34073,65.330714 q -0.82171,-0.384632 -1.64343,-0.559465 -0.80423,-0.192317 -1.62595,-0.192317 -2.41269,0 -3.72394,1.556014 -1.29376,1.538531 -1.29376,4.423276 v 9.021383 h -6.25903 V 59.998307 h 6.25903 v 3.216928 q 1.20634,-1.923163 2.76236,-2.797328 1.5735,-0.891649 3.75891,-0.891649 0.3147,0 0.68185,0.03497 0.36715,0.01748 1.06648,0.1049 z"
       style="font-style:normal;font-variant:normal;font-weight:bold;font-stretch:normal;font-family:sans-serif;-inkscape-font-specification:'sans-serif Bold';stroke:none;stroke-width:0.900808;stroke-opacity:1"
       id="path143" />
    <path
       d="m 391.99887,65.330714 q -0.82171,-0.384632 -1.64343,-0.559465 -0.80423,-0.192317 -1.62594,-0.192317 -2.4127,0 -3.72395,1.556014 -1.29376,1.538531 -1.29376,4.423276 v 9.021383 h -6.25902 V 59.998307 h 6.25902 v 3.216928 q 1.20635,-1.923163 2.76236,-2.797328 1.5735,-0.891649 3.75891,-0.891649 0.3147,0 0.68185,0.03497 0.36715,0.01748 1.06648,0.1049 z"
       style="font-style:normal;font-variant:normal;font-weight:bold;font-stretch:normal;font-family:sans-serif;-inkscape-font-specification:'sans-serif Bold';stroke:none;stroke-width:0.900808;stroke-opacity:1"
       id="path145" />
    <path
       d="m 395.11091,59.998307 h 6.25902 v 19.581298 h -6.25902 z m 0,-7.622719 h 6.25902 v 5.105124 h -6.25902 z"
       style="font-style:normal;font-variant:normal;font-weight:bold;font-stretch:normal;font-family:sans-serif;-inkscape-font-specification:'sans-serif Bold';stroke:none;stroke-width:0.900808;stroke-opacity:1"
       id="path147" />
    <path
       d="m 426.93049,69.736506 v 1.783297 h -14.63352 q 0.22728,2.202896 1.59098,3.304344 1.3637,1.101448 3.81136,1.101448 1.97561,0 4.03864,-0.576949 2.08052,-0.594432 4.26593,-1.783297 v 4.825392 q -2.22038,0.839198 -4.44076,1.258797 -2.22038,0.437083 -4.44076,0.437083 -5.31492,0 -8.2696,-2.692429 -2.93719,-2.709911 -2.93719,-7.587752 0,-4.790425 2.88474,-7.535303 2.90223,-2.744879 7.97239,-2.744879 4.61559,0 7.37795,2.779845 2.77984,2.779845 2.77984,7.430403 z m -6.43385,-2.080512 q 0,-1.783297 -1.049,-2.867262 -1.03151,-1.101448 -2.70991,-1.101448 -1.81826,0 -2.95468,1.031515 -1.13641,1.014031 -1.41615,2.937195 z"
       style="font-style:normal;font-variant:normal;font-weight:bold;font-stretch:normal;font-family:sans-serif;-inkscape-font-specification:'sans-serif Bold';stroke:none;stroke-width:0.900808;stroke-opacity:1"
       id="path149" />
    <path
       d="m 446.21457,65.330714 q -0.82171,-0.384632 -1.64343,-0.559465 -0.80423,-0.192317 -1.62595,-0.192317 -2.41269,0 -3.72394,1.556014 -1.29376,1.538531 -1.29376,4.423276 v 9.021383 h -6.25903 V 59.998307 h 6.25903 v 3.216928 q 1.20634,-1.923163 2.76236,-2.797328 1.5735,-0.891649 3.75891,-0.891649 0.3147,0 0.68185,0.03497 0.36715,0.01748 1.06648,0.1049 z"
       style="font-style:normal;font-variant:normal;font-weight:bold;font-stretch:normal;font-family:sans-serif;-inkscape-font-specification:'sans-serif Bold';stroke:none;stroke-width:0.900808;stroke-opacity:1"
       id="path151" />
    <path
       d="m 468.87294,69.736506 v 1.783297 h -14.63353 q 0.22729,2.202896 1.59098,3.304344 1.3637,1.101448 3.81136,1.101448 1.97562,0 4.03865,-0.576949 2.08051,-0.594432 4.26592,-1.783297 v 4.825392 q -2.22038,0.839198 -4.44076,1.258797 -2.22037,0.437083 -4.44075,0.437083 -5.31493,0 -8.26961,-2.692429 -2.93719,-2.709911 -2.93719,-7.587752 0,-4.790425 2.88474,-7.535303 2.90223,-2.744879 7.97239,-2.744879 4.61559,0 7.37795,2.779845 2.77985,2.779845 2.77985,7.430403 z m -6.43386,-2.080512 q 0,-1.783297 -1.049,-2.867262 -1.03151,-1.101448 -2.70991,-1.101448 -1.81826,0 -2.95467,1.031515 -1.13642,1.014031 -1.41615,2.937195 z"
       style="font-style:normal;font-variant:normal;font-weight:bold;font-stretch:normal;font-family:sans-serif;-inkscape-font-specification:'sans-serif Bold';stroke:none;stroke-width:0.900808;stroke-opacity:1"
       id="path153" />
    <path
       d="m 486.4961,52.375588 v 4.108576 h -3.46169 q -1.32873,0 -1.85323,0.489532 -0.5245,0.472049 -0.5245,1.660914 v 1.363697 h 5.34989 v 4.475726 h -5.34989 v 15.105572 h -6.25902 V 64.474033 h -3.11203 v -4.475726 h 3.11203 V 58.63461 q 0,-3.199444 1.78329,-4.720491 1.7833,-1.538531 5.52473,-1.538531 z"
       style="font-style:normal;font-variant:normal;font-weight:bold;font-stretch:normal;font-family:sans-serif;-inkscape-font-specification:'sans-serif Bold';stroke:none;stroke-width:0.900808;stroke-opacity:1"
       id="path155" />
    <path
       d="m 503.73465,65.330714 q -0.82171,-0.384632 -1.64343,-0.559465 -0.80423,-0.192317 -1.62595,-0.192317 -2.41269,0 -3.72394,1.556014 -1.29376,1.538531 -1.29376,4.423276 v 9.021383 h -6.25902 V 59.998307 h 6.25902 v 3.216928 q 1.20635,-1.923163 2.76236,-2.797328 1.5735,-0.891649 3.75891,-0.891649 0.3147,0 0.68185,0.03497 0.36715,0.01748 1.06648,0.1049 z"
       style="font-style:normal;font-variant:normal;font-weight:bold;font-stretch:normal;font-family:sans-serif;-inkscape-font-specification:'sans-serif Bold';stroke:none;stroke-width:0.900808;stroke-opacity:1"
       id="path157" />
    <path
       d="m 526.39302,69.736506 v 1.783297 H 511.7595 q 0.22728,2.202896 1.59098,3.304344 1.36369,1.101448 3.81136,1.101448 1.97561,0 4.03864,-0.576949 2.08051,-0.594432 4.26592,-1.783297 v 4.825392 q -2.22038,0.839198 -4.44076,1.258797 -2.22037,0.437083 -4.44075,0.437083 -5.31493,0 -8.26961,-2.692429 -2.93719,-2.709911 -2.93719,-7.587752 0,-4.790425 2.88474,-7.535303 2.90223,-2.744879 7.97239,-2.744879 4.61559,0 7.37795,2.779845 2.77985,2.779845 2.77985,7.430403 z m -6.43386,-2.080512 q 0,-1.783297 -1.04899,-2.867262 -1.03152,-1.101448 -2.70992,-1.101448 -1.81826,0 -2.95467,1.031515 -1.13642,1.014031 -1.41615,2.937195 z"
       style="font-style:normal;font-variant:normal;font-weight:bold;font-stretch:normal;font-family:sans-serif;-inkscape-font-specification:'sans-serif Bold';stroke:none;stroke-width:0.900808;stroke-opacity:1"
       id="path159" />
    <path
       d="m 531.13099,59.998307 h 6.25902 v 19.581298 h -6.25902 z m 0,-7.622719 h 6.25902 v 5.105124 h -6.25902 z"
       style="font-style:normal;font-variant:normal;font-weight:bold;font-stretch:normal;font-family:sans-serif;-inkscape-font-specification:'sans-serif Bold';stroke:none;stroke-width:0.900808;stroke-opacity:1"
       id="path161" />
    <path
       d="m 563.09047,67.655994 v 11.923611 h -6.29399 v -1.940646 -7.150671 q 0,-2.570045 -0.12238,-3.531627 -0.1049,-0.961581 -0.38463,-1.416147 -0.36715,-0.611916 -0.99655,-0.944098 -0.6294,-0.349666 -1.43363,-0.349666 -1.95813,0 -3.07706,1.521047 -1.11893,1.503564 -1.11893,4.178509 v 9.633299 h -6.25903 V 52.375588 h 6.25903 v 10.489981 q 1.41614,-1.713364 3.00712,-2.517596 1.59098,-0.821715 3.51415,-0.821715 3.39176,0 5.14009,2.080513 1.76581,2.080513 1.76581,6.049223 z"
       style="font-style:normal;font-variant:normal;font-weight:bold;font-stretch:normal;font-family:sans-serif;-inkscape-font-specification:'sans-serif Bold';stroke:none;stroke-width:0.900808;stroke-opacity:1"
       id="path163" />
    <path
       d="m 588.44127,69.736506 v 1.783297 h -14.63353 q 0.22729,2.202896 1.59098,3.304344 1.3637,1.101448 3.81136,1.101448 1.97562,0 4.03865,-0.576949 2.08051,-0.594432 4.26592,-1.783297 v 4.825392 q -2.22038,0.839198 -4.44076,1.258797 -2.22038,0.437083 -4.44076,0.437083 -5.31492,0 -8.2696,-2.692429 -2.93719,-2.709911 -2.93719,-7.587752 0,-4.790425 2.88474,-7.535303 2.90223,-2.744879 7.97239,-2.744879 4.61559,0 7.37795,2.779845 2.77985,2.779845 2.77985,7.430403 z m -6.43386,-2.080512 q 0,-1.783297 -1.049,-2.867262 -1.03151,-1.101448 -2.70991,-1.101448 -1.81826,0 -2.95468,1.031515 -1.13641,1.014031 -1.41614,2.937195 z"
       style="font-style:normal;font-variant:normal;font-weight:bold;font-stretch:normal;font-family:sans-serif;-inkscape-font-specification:'sans-serif Bold';stroke:none;stroke-width:0.900808;stroke-opacity:1"
       id="path165" />
    <path
       d="m 593.17924,59.998307 h 6.25902 v 19.581298 h -6.25902 z m 0,-7.622719 h 6.25902 v 5.105124 h -6.25902 z"
       style="font-style:normal;font-variant:normal;font-weight:bold;font-stretch:normal;font-family:sans-serif;-inkscape-font-specification:'sans-serif Bold';stroke:none;stroke-width:0.900808;stroke-opacity:1"
       id="path167" />
    <path
       d="m 612.28846,54.438618 v 5.559689 h 6.45134 v 4.475726 h -6.45134 v 8.304568 q 0,1.363697 0.54199,1.85323 0.54198,0.472049 2.15044,0.472049 h 3.21693 v 4.475725 h -5.36737 q -3.70646,0 -5.26248,-1.53853 -1.53853,-1.556014 -1.53853,-5.262474 v -8.304568 h -3.11203 v -4.475726 h 3.11203 v -5.559689 z"
       style="font-style:normal;font-variant:normal;font-weight:bold;font-stretch:normal;font-family:sans-serif;-inkscape-font-specification:'sans-serif Bold';stroke:none;stroke-width:0.900808;stroke-opacity:1"
       id="path169" />
  </g>
  <rect
     style="opacity:1;fill:none;fill-opacity:1;stroke:none;stroke-width:2.23927;stroke-miterlimit:4;stroke-dasharray:none;stroke-dashoffset:0;stroke-opacity:1"
     id="rect1237-5-00"
     width="566.53119"
     height="149.3569"
     x="0"
     y="0" />
</svg>
